<svg width="179px" height="120px" viewBox="0 0 179 120" version="1.1" xmlns="http://www.w3.org/2000/svg" xmlns:xlink="http://www.w3.org/1999/xlink">
  <defs></defs>
  <g id="Page-1" stroke="none" stroke-width="1" fill="none" fill-rule="evenodd">
      <g id="Home,-Round-Two" transform="translate(-74.000000, -54.000000)">
          <path d="M86.7327294,55.0054645 C94.7712346,55.0054645 100.601359,60.557377 100.601359,69.9125683 C100.601359,79.2677596 94.8154022,84.8196721 86.7327294,84.8196721 L76,84.8196721 L76,55.0054645 L86.7327294,55.0054645 Z M86.7327294,82.4590164 C93.1812006,82.4590164 97.8629673,77.7814208 97.8629673,69.9125683 C97.8629673,62.0437158 93.1812006,57.3661202 86.7327294,57.3661202 L78.6942243,57.3661202 L78.6942243,82.4590164 L86.7327294,82.4590164 Z M108.90487,56.579235 C108.90487,57.7595628 107.97735,58.6338798 106.828992,58.6338798 C105.680634,58.6338798 104.753114,57.7595628 104.753114,56.579235 C104.753114,55.3989071 105.680634,54.5245902 106.828992,54.5245902 C107.97735,54.5245902 108.90487,55.3989071 108.90487,56.579235 Z M105.415629,84.8196721 L105.415629,63.5737705 L108.109853,63.5737705 L108.109853,84.8196721 L105.415629,84.8196721 Z M130.14949,63.5737705 L132.667044,63.5737705 L132.667044,85.0819672 C132.667044,90.5464481 129.001133,94 122.729332,94 C117.120045,94 113.939977,91.726776 113.454134,87.442623 L116.10419,87.442623 C116.545866,90.3715847 118.710079,91.6830601 122.685164,91.6830601 C127.411099,91.6830601 130.016988,89.147541 130.016988,85.0819672 L130.016988,80.7103825 C128.691959,83.2896175 126.130238,85.0382514 122.508494,85.0382514 C116.678369,85.0382514 112.659117,80.7540984 112.659117,74.1530055 C112.659117,67.5956284 116.678369,63.3551913 122.508494,63.3551913 C126.174406,63.3551913 128.736127,65.1038251 130.061155,67.726776 L130.14949,63.5737705 Z M122.640997,82.7213115 C127.146093,82.7213115 130.016988,79.0054645 130.016988,74.9398907 L130.016988,73.4098361 C130.016988,69.431694 127.146093,65.6284153 122.640997,65.6284153 C118.312571,65.6284153 115.397508,68.9508197 115.397508,74.1530055 C115.397508,79.3989071 118.312571,82.7213115 122.640997,82.7213115 Z M142.118913,56.579235 C142.118913,57.7595628 141.191393,58.6338798 140.043035,58.6338798 C138.894677,58.6338798 137.967157,57.7595628 137.967157,56.579235 C137.967157,55.3989071 138.894677,54.5245902 140.043035,54.5245902 C141.191393,54.5245902 142.118913,55.3989071 142.118913,56.579235 Z M138.629672,84.8196721 L138.629672,63.5737705 L141.323896,63.5737705 L141.323896,84.8196721 L138.629672,84.8196721 Z M158.770102,78.1748634 L161.199321,78.1748634 C161.199321,82.5027322 158.81427,84.9945355 154.750849,84.9945355 C150.819932,84.9945355 148.169875,82.7213115 148.169875,78.0874317 L148.169875,65.8907104 L144.724802,65.8907104 L144.724802,63.5737705 L148.302378,63.5737705 L148.302378,57.1038251 L150.8641,57.1038251 L150.8641,63.5737705 L159.344281,63.5737705 L159.344281,65.8032787 L150.8641,65.8032787 L150.8641,78.0874317 C150.8641,81.3661202 152.277463,82.6775956 154.750849,82.6775956 C157.268403,82.6775956 158.770102,81.3661202 158.770102,78.1748634 Z M183.989808,82.3715847 L184.254813,84.6885246 C183.592299,84.9071038 182.929785,85.0382514 182.178936,85.0382514 C179.970555,85.0382514 178.601359,83.5956284 178.601359,81.2349727 L178.601359,81.0601093 C177.673839,82.6775956 175.244621,85.0382514 170.430351,85.0382514 C165.83692,85.0382514 163.496036,82.7213115 163.496036,79.3989071 C163.496036,74.7213115 167.824462,72.8852459 174.184598,72.8852459 L178.601359,72.8852459 L178.601359,71.2240437 C178.601359,67.8142077 176.348811,65.6284153 172.550396,65.6284153 C169.061155,65.6284153 166.852775,67.420765 166.587769,70.3497268 L163.98188,70.3497268 C164.335221,66.0218579 167.736127,63.3551913 172.727067,63.3551913 C178.071348,63.3551913 181.251416,66.3715847 181.251416,71.2677596 L181.251416,80.7540984 C181.251416,81.9781421 181.869762,82.5901639 182.797282,82.5901639 C183.238958,82.5901639 183.548131,82.5464481 183.989808,82.3715847 Z M170.960362,82.852459 C176.304643,82.852459 178.601359,78.9180328 178.601359,77.5191257 L178.601359,74.852459 L174.052095,74.852459 C169.14949,74.852459 166.234428,76.2076503 166.234428,79.3114754 C166.234428,81.4535519 167.736127,82.852459 170.960362,82.852459 Z M192.734994,82.3715847 L193,84.6885246 C192.337486,84.9071038 191.674972,85.0382514 190.879955,85.0382514 C188.671574,85.0382514 187.346546,83.5956284 187.346546,81.1912568 L187.346546,54 L189.996602,54 L189.996602,80.7540984 C189.996602,81.9781421 190.659117,82.5901639 191.586636,82.5901639 C192.028313,82.5901639 192.293318,82.5464481 192.734994,82.3715847 Z" id="Combined-Shape" fill="#000000"></path>
          <path d="M77.6183519,103.151448 C77.6183519,112.327394 95.7983637,105.64588 95.7983637,118.11804 C95.7983637,123.062361 91.2533607,126.091314 85.0756868,126.091314 C78.5008767,126.091314 74,122.973274 74,117.227171 L76.6917008,117.227171 C76.6475745,121.23608 79.9129165,123.685969 85.2521918,123.685969 C90.0178259,123.685969 93.1066629,121.592428 93.1066629,118.11804 C93.1066629,108.496659 74.9266511,115.13363 74.9266511,103.195991 C74.8825248,98.2071269 79.2068966,95.2227171 85.2080655,95.2227171 C91.3416132,95.2227171 95.312975,98.2962138 95.312975,103.730512 L92.6654005,103.730512 C92.6654005,99.5434298 89.5324373,97.6280624 85.119813,97.6280624 C80.3541789,97.6280624 77.6183519,99.5879733 77.6183519,103.151448 Z M118.788136,114.955457 L118.788136,115.712695 L101.887785,115.712695 C102.108416,120.657016 104.932496,123.730512 109.34512,123.730512 C113.44886,123.730512 115.56692,121.414254 115.964056,119.008909 L118.655757,119.008909 C117.993863,122.928731 114.772648,126.091314 109.256867,126.091314 C102.858562,126.091314 99.1519579,121.636971 99.1519579,115.13363 C99.1519579,108.541203 103.299825,103.997773 109.212741,103.997773 C115.125658,103.997773 118.788136,108.229399 118.788136,114.955457 Z M109.256867,106.314031 C105.241379,106.314031 102.461426,109.120267 101.976037,113.663697 L116.096435,113.663697 C115.743425,108.89755 113.228229,106.314031 109.256867,106.314031 Z M131.937756,126.180401 C125.627703,126.180401 121.965225,121.726058 121.965225,115.13363 C121.965225,108.541203 126.024839,103.997773 132.070135,103.997773 C137.365284,103.997773 140.718878,107.249443 141.248393,111.926503 L138.380187,111.926503 C137.938925,108.808463 135.732613,106.314031 132.070135,106.314031 C127.613384,106.314031 124.701052,109.788419 124.701052,115.089087 C124.701052,120.434298 127.481005,123.819599 132.026008,123.819599 C135.732613,123.819599 137.938925,121.36971 138.380187,118.340757 L141.248393,118.340757 C140.630626,122.973274 137.277031,126.180401 131.937756,126.180401 Z M165.341321,123.374165 L165.606078,125.734967 C164.944185,125.957684 164.282291,126.091314 163.488019,126.091314 C161.281707,126.091314 159.957919,124.665924 159.957919,122.216036 C158.634132,124.487751 156.251315,126.091314 152.941847,126.091314 C148.44097,126.091314 145.263881,122.884187 145.263881,118.073497 L145.263881,104.22049 L147.955582,104.22049 L147.955582,117.717149 C147.955582,121.458797 150.161894,123.730512 153.383109,123.730512 C157.530976,123.730512 159.957919,120.746102 159.957919,117.316258 L159.957919,104.22049 L162.64962,104.22049 L162.64962,121.726058 C162.64962,122.973274 163.267388,123.596882 164.194039,123.596882 C164.635301,123.596882 164.900059,123.552339 165.341321,123.374165 Z M177.829047,103.997773 C178.402689,103.997773 178.799825,104.08686 179.020456,104.131403 L179.020456,106.759465 C178.843951,106.670379 178.446815,106.625835 177.652542,106.625835 C174.166569,106.625835 171.916131,110.45657 171.916131,114.109131 L171.916131,125.868597 L169.268556,125.868597 L169.268556,104.22049 L171.783752,104.22049 L171.872005,108.541203 C172.842782,106.046771 174.784337,103.997773 177.829047,103.997773 Z M185.815897,97.0935412 C185.815897,98.2962138 184.889246,99.1870824 183.741964,99.1870824 C182.594681,99.1870824 181.66803,98.2962138 181.66803,97.0935412 C181.66803,95.8908686 182.594681,95 183.741964,95 C184.889246,95 185.815897,95.8908686 185.815897,97.0935412 Z M182.329924,125.868597 L182.329924,104.22049 L185.021625,104.22049 L185.021625,125.868597 L182.329924,125.868597 Z M202.45149,119.097996 L204.878434,119.097996 C204.878434,123.507795 202.495617,126.046771 198.436002,126.046771 C194.508767,126.046771 191.861192,123.730512 191.861192,119.008909 L191.861192,106.581292 L188.419345,106.581292 L188.419345,104.22049 L191.993571,104.22049 L191.993571,97.6280624 L194.552893,97.6280624 L194.552893,104.22049 L203.025131,104.22049 L203.025131,106.492205 L194.552893,106.492205 L194.552893,119.008909 C194.552893,122.349666 195.964933,123.685969 198.436002,123.685969 C200.951198,123.685969 202.45149,122.349666 202.45149,119.097996 Z M222.264173,104.22049 L225,104.22049 L216.704266,125.868597 L215.424605,129.164811 C213.791934,133.485523 211.806254,135 208.496785,135 C207.393629,135 206.113968,134.777283 205.540327,134.510022 L205.760958,132.104677 C206.378726,132.371938 207.172998,132.550111 208.011397,132.550111 C210.173583,132.550111 211.762127,131.792873 212.90941,128.89755 L213.880187,126.581292 L205.319696,104.22049 L208.32028,104.22049 L214.762712,121.636971 L215.2481,123.151448 L215.336353,123.151448 C215.424605,122.572383 215.556984,122.126949 215.733489,121.636971 L222.264173,104.22049 Z" id="Combined-Shape" fill="#000000"></path>
          <path d="M78.6905059,162.415301 L95.7597808,162.415301 L95.7597808,164.819672 L76,164.819672 L76,135.005464 L95.6274609,135.005464 L95.6274609,137.409836 L78.6905059,137.409836 L78.6905059,148.076503 L94.2601546,148.076503 L94.2601546,150.480874 L78.6905059,150.480874 L78.6905059,162.415301 Z M116.004735,164.819672 L112.873162,164.819672 L106.918764,155.814208 L100.964366,164.819672 L97.9210067,164.819672 L105.375031,154.021858 L97.8769001,143.57377 L101.052579,143.57377 L106.918764,152.098361 L112.784949,143.57377 L115.828308,143.57377 L108.506604,153.934426 L116.004735,164.819672 Z M127.119611,165.125683 C120.81236,165.125683 117.151508,160.754098 117.151508,154.284153 C117.151508,147.814208 121.20932,143.355191 127.251931,143.355191 C132.54473,143.355191 135.896835,146.546448 136.426115,151.136612 L133.559183,151.136612 C133.118116,148.076503 130.912783,145.628415 127.251931,145.628415 C122.797159,145.628415 119.88612,149.038251 119.88612,154.240437 C119.88612,159.486339 122.664839,162.808743 127.207825,162.808743 C130.912783,162.808743 133.118116,160.404372 133.559183,157.431694 L136.426115,157.431694 C135.808622,161.978142 132.456516,165.125683 127.119611,165.125683 Z M150.672564,143.355191 C155.568403,143.355191 158.523549,146.459016 158.523549,151.26776 L158.523549,164.819672 L155.833043,164.819672 L155.833043,151.836066 C155.833043,148.032787 153.715923,145.628415 150.055071,145.628415 C145.820832,145.628415 143.394966,148.601093 143.394966,151.967213 L143.394966,164.819672 L140.70446,164.819672 L140.70446,134 L143.35086,134 L143.35086,147.202186 C144.674059,144.972678 147.144032,143.355191 150.672564,143.355191 Z M183.179168,162.371585 L183.443808,164.688525 C182.782208,164.907104 182.120608,165.038251 181.370795,165.038251 C179.165462,165.038251 177.798156,163.595628 177.798156,161.234973 L177.798156,161.060109 C176.871916,162.677596 174.44605,165.038251 169.638425,165.038251 C165.051333,165.038251 162.71368,162.721311 162.71368,159.398907 C162.71368,154.721311 167.036133,152.885246 173.387491,152.885246 L177.798156,152.885246 L177.798156,151.224044 C177.798156,147.814208 175.548717,145.628415 171.755544,145.628415 C168.271119,145.628415 166.065786,147.420765 165.801146,150.349727 L163.198854,150.349727 C163.551707,146.021858 166.947919,143.355191 171.931971,143.355191 C177.268876,143.355191 180.444555,146.371585 180.444555,151.26776 L180.444555,160.754098 C180.444555,161.978142 181.062048,162.590164 181.988288,162.590164 C182.429355,162.590164 182.738101,162.546448 183.179168,162.371585 Z M170.167705,162.852459 C175.50461,162.852459 177.798156,158.918033 177.798156,157.519126 L177.798156,154.852459 L173.255171,154.852459 C168.359332,154.852459 165.448293,156.20765 165.448293,159.311475 C165.448293,161.453552 166.947919,162.852459 170.167705,162.852459 Z M196.631697,143.355191 C201.483429,143.355191 204.482681,146.371585 204.482681,151.57377 L204.482681,164.819672 L201.792175,164.819672 L201.792175,152.098361 C201.792175,148.076503 199.675056,145.628415 195.970097,145.628415 C191.735858,145.628415 189.309992,148.644809 189.309992,151.967213 L189.309992,164.819672 L186.663593,164.819672 L186.663593,143.57377 L189.177672,143.57377 L189.265886,147.245902 C190.589085,144.972678 193.103165,143.355191 196.631697,143.355191 Z M226.271368,143.57377 L228.785447,143.57377 L228.785447,165.081967 C228.785447,170.546448 225.124595,174 218.86145,174 C213.259905,174 210.084226,171.726776 209.599053,167.442623 L212.245452,167.442623 C212.686519,170.371585 214.847745,171.68306 218.817344,171.68306 C223.536756,171.68306 226.139048,169.147541 226.139048,165.081967 L226.139048,160.710383 C224.815848,163.289617 222.257663,165.038251 218.640917,165.038251 C212.818839,165.038251 208.805133,160.754098 208.805133,154.153005 C208.805133,147.595628 212.818839,143.355191 218.640917,143.355191 C222.301769,143.355191 224.859955,145.103825 226.183155,147.726776 L226.271368,143.57377 Z M218.773237,162.721311 C223.272116,162.721311 226.139048,159.005464 226.139048,154.939891 L226.139048,153.409836 C226.139048,149.431694 223.272116,145.628415 218.773237,145.628415 C214.450785,145.628415 211.539746,148.95082 211.539746,154.153005 C211.539746,159.398907 214.450785,162.721311 218.773237,162.721311 Z M253,154.10929 L253,154.852459 L236.107152,154.852459 C236.327685,159.704918 239.150511,162.721311 243.561176,162.721311 C247.663095,162.721311 249.780214,160.448087 250.177174,158.087432 L252.86768,158.087432 C252.20608,161.934426 248.986295,165.038251 243.472963,165.038251 C237.077498,165.038251 233.372539,160.666667 233.372539,154.284153 C233.372539,147.814208 237.518565,143.355191 243.428856,143.355191 C249.339148,143.355191 253,147.508197 253,154.10929 Z M243.472963,145.628415 C239.459257,145.628415 236.680538,148.382514 236.195365,152.84153 L250.309494,152.84153 C249.956641,148.163934 247.442562,145.628415 243.472963,145.628415 Z" id="Combined-Shape" fill="#0D0AE2"></path>
      </g>
  </g>
</svg>
